<?xml version="1.0" encoding="UTF-8" standalone="no"?>
<svg width="188px" height="34px" viewBox="0 0 188 34" version="1.1" xmlns="http://www.w3.org/2000/svg" xmlns:xlink="http://www.w3.org/1999/xlink">
    <!-- Generator: Sketch 3.6.1 (26313) - http://www.bohemiancoding.com/sketch -->
    <title>Askr.xyz</title>
    <desc>Created with Sketch.</desc>
    <defs></defs>
    <g id="Page-1" stroke="none" stroke-width="1" fill="none" fill-rule="evenodd">
        <path d="M28.632,5.152 C28.7280005,5.37600112 28.8159996,5.65599832 28.896,5.992 C28.9760004,6.32800168 29.016,6.62399872 29.016,6.88 L29.016,7.408 L29.016,7.84 L29.016,33.088 C29.016,33.3440013 28.9280009,33.5519992 28.752,33.712 C28.5759991,33.8720008 28.3600013,33.952 28.104,33.952 L21.432,33.952 C21.1759987,33.952 20.9680008,33.8720008 20.808,33.712 C20.6479992,33.5519992 20.568,33.3440013 20.568,33.088 L20.568,24.448 C20.568,24.1919987 20.4800009,23.9840008 20.304,23.824 C20.1279991,23.6639992 19.9120013,23.584 19.656,23.584 L10.152,23.584 C9.89599872,23.584 9.68000088,23.6639992 9.504,23.824 C9.32799912,23.9840008 9.24,24.1919987 9.24,24.448 L9.24,33.088 C9.24,33.3440013 9.1600008,33.5519992 9,33.712 C8.8399992,33.8720008 8.63200128,33.952 8.376,33.952 L1.704,33.952 C1.44799872,33.952 1.23200088,33.8720008 1.056,33.712 C0.87999912,33.5519992 0.792,33.3440013 0.792,33.088 L0.792,7.648 L0.792,6.88 L0.792,6.736 C0.82400016,6.47999872 0.87199968,6.20800144 0.936,5.92 C1.00000032,5.63199856 1.07999952,5.37600112 1.176,5.152 L5.592,0.736 C5.81600112,0.63999952 6.0879984,0.5520004 6.408,0.472 C6.7280016,0.3919996 7.01599872,0.352 7.272,0.352 L7.992,0.352 L10.728,0.352 L20.52,0.352 L21.96,0.352 L22.488,0.352 C22.7440013,0.352 23.0399983,0.3919996 23.376,0.472 C23.7120017,0.5520004 23.9919989,0.63999952 24.216,0.736 L28.632,5.152 Z M20.568,7.888 L9.24,7.888 L9.24,16.384 L20.568,16.384 L20.568,7.888 Z M61.752,18.544 C61.8480005,18.8000013 61.9359996,19.0879984 62.016,19.408 C62.0960004,19.7280016 62.136,20.0159987 62.136,20.272 L62.136,21.616 L62.136,25.168 L62.136,27.52 C62.136,27.7760013 62.0960004,28.0639984 62.016,28.384 C61.9359996,28.7040016 61.8480005,28.9759989 61.752,29.2 L57.336,33.616 C57.1119989,33.7440006 56.8320017,33.8399997 56.496,33.904 C56.1599983,33.9680003 55.8640013,34 55.608,34 L54.552,34 L43.656,34 L37.368,34 C36.759997,34 36.456,33.696003 36.456,33.088 L36.456,27.28 C36.456,27.0239987 36.5439991,26.8080009 36.72,26.632 C36.8960009,26.4559991 37.1119987,26.368 37.368,26.368 L45,26.368 L49.128,26.368 L53.688,26.368 C53.9440013,26.368 54.1599991,26.2880008 54.336,26.128 C54.5120009,25.9679992 54.6,25.7600013 54.6,25.504 L54.6,21.52 C54.6,21.2639987 54.5120009,21.0480009 54.336,20.872 C54.1599991,20.6959991 53.9440013,20.608 53.688,20.608 L49.368,20.608 L43.608,20.608 L42.936,20.608 C42.6799987,20.608 42.3920016,20.5760003 42.072,20.512 C41.7519984,20.4479997 41.4800011,20.3680005 41.256,20.272 L36.84,15.856 C36.7119994,15.5999987 36.6160003,15.3120016 36.552,14.992 C36.4879997,14.6719984 36.456,14.3840013 36.456,14.128 L36.456,13.216 L36.456,7.744 L36.456,6.88 C36.456,6.62399872 36.4879997,6.3360016 36.552,6.016 C36.6160003,5.6959984 36.7119994,5.42400112 36.84,5.2 L41.256,0.784 C41.4800011,0.68799952 41.7519984,0.6000004 42.072,0.52 C42.3920016,0.4399996 42.6799987,0.4 42.936,0.4 L43.848,0.4 L57.192,0.4 L60.168,0.4 C60.4240013,0.4 60.6399991,0.48799912 60.816,0.664 C60.9920009,0.84000088 61.08,1.05599872 61.08,1.312 L61.08,7.216 C61.08,7.47200128 60.9920009,7.68799912 60.816,7.864 C60.6399991,8.04000088 60.4240013,8.128 60.168,8.128 L56.808,8.128 L47.976,8.128 L44.856,8.128 C44.5999987,8.128 44.3840009,8.2079992 44.208,8.368 C44.0319991,8.5280008 43.944,8.73599872 43.944,8.992 L43.944,12.88 C43.944,13.1360013 44.0319991,13.3519991 44.208,13.528 C44.3840009,13.7040009 44.5999987,13.792 44.856,13.792 L47.928,13.792 L54.456,13.792 L55.608,13.792 C55.8640013,13.792 56.1599983,13.8239997 56.496,13.888 C56.8320017,13.9520003 57.1119989,14.0319995 57.336,14.128 L61.752,18.544 Z M88.536,14.56 C88.4399995,14.6560005 88.4239997,14.7679994 88.488,14.896 L99.72,33.232 C99.8480006,33.4560011 99.8640005,33.6399993 99.768,33.784 C99.6719995,33.9280007 99.4960013,34 99.24,34 L91.272,34 C91.0159987,34 90.7600013,33.9280007 90.504,33.784 C90.2479987,33.6399993 90.0560006,33.4560011 89.928,33.232 L82.68,20.128 C82.5839995,19.9679992 82.5040003,19.9519994 82.44,20.08 L78.456,24.448 C78.2959992,24.6080008 78.1600006,24.8399985 78.048,25.144 C77.9359994,25.4480015 77.88,25.7279987 77.88,25.984 L77.88,33.088 C77.88,33.696003 77.576003,34 76.968,34 L70.344,34 C69.735997,34 69.432,33.696003 69.432,33.088 L69.432,1.312 C69.432,0.70399696 69.735997,0.4 70.344,0.4 L76.968,0.4 C77.576003,0.4 77.88,0.70399696 77.88,1.312 L77.88,15.568 L90.264,1.072 C90.4240008,0.87999904 90.6479986,0.72000064 90.936,0.592 C91.2240014,0.46399936 91.4959987,0.4 91.752,0.4 L99.72,0.4 C99.9760013,0.4 100.128,0.46399936 100.176,0.592 C100.224,0.72000064 100.168001,0.87999904 100.008,1.072 L88.536,14.56 Z M135.24,33.232 C135.368001,33.4560011 135.384,33.6399993 135.288,33.784 C135.192,33.9280007 135.016001,34 134.76,34 L127.128,34 C126.871999,34 126.616001,33.9280007 126.36,33.784 C126.103999,33.6399993 125.912001,33.4560011 125.784,33.232 L120.408,24.112 C120.344,23.9839994 120.232001,23.92 120.072,23.92 L114.648,23.92 C114.487999,23.92 114.408,23.9999992 114.408,24.16 L114.408,33.088 C114.408,33.696003 114.104003,34 113.496,34 L106.872,34 C106.263997,34 105.96,33.696003 105.96,33.088 L105.96,17.44 L105.96,9.232 L105.96,1.312 C105.96,1.05599872 106.047999,0.84000088 106.224,0.664 C106.400001,0.48799912 106.615999,0.4 106.872,0.4 L127.656,0.4 C127.912001,0.4 128.207998,0.4399996 128.544,0.52 C128.880002,0.6000004 129.159999,0.68799952 129.384,0.784 L133.8,5.2 C133.896,5.42400112 133.984,5.6959984 134.064,6.016 C134.144,6.3360016 134.184,6.62399872 134.184,6.88 L134.184,13.36 L134.184,16.864 L134.184,17.344 C134.184,17.536001 134.136,17.7679986 134.04,18.04 C133.944,18.3120014 133.832001,18.5599989 133.704,18.784 L129.288,23.296 L135.24,33.232 Z M125.688,8.224 L114.072,8.224 L114.072,16.384 L119.592,16.384 L124.68,16.384 L124.824,16.384 L125.688,16.384 L125.688,15.76 L125.688,10.336 L125.688,8.224 Z M143.436,30.48 C143.689335,30.48 143.816,30.6066654 143.816,30.86 L143.816,33.62 C143.816,33.8733346 143.689335,34 143.436,34 L140.676,34 C140.422665,34 140.296,33.8733346 140.296,33.62 L140.296,30.86 C140.296,30.6066654 140.422665,30.48 140.676,30.48 L143.436,30.48 Z M159.656,33.68 C159.722667,33.7733338 159.736,33.8499997 159.696,33.91 C159.656,33.9700003 159.582667,34 159.476,34 L156.476,34 C156.369333,34 156.262667,33.9700003 156.156,33.91 C156.049333,33.8499997 155.969334,33.7733338 155.916,33.68 L152.996,29.5 L150.056,33.68 C150.002666,33.7733338 149.922667,33.8499997 149.816,33.91 C149.709333,33.9700003 149.602667,34 149.496,34 L146.496,34 C146.389333,34 146.316,33.9700003 146.276,33.91 C146.236,33.8499997 146.249333,33.7733338 146.316,33.68 L150.616,27.1 C150.669334,27.0066662 150.696,26.9000006 150.696,26.78 C150.696,26.6599994 150.669334,26.5533338 150.616,26.46 L146.576,20.32 C146.509333,20.2266662 146.496,20.1500003 146.536,20.09 C146.576,20.0299997 146.649333,20 146.756,20 L149.756,20 C149.862667,20 149.969333,20.0299997 150.076,20.09 C150.182667,20.1500003 150.262666,20.2266662 150.316,20.32 L152.996,24.08 L155.656,20.32 C155.709334,20.2266662 155.789333,20.1500003 155.896,20.09 C156.002667,20.0299997 156.109333,20 156.216,20 L159.216,20 C159.322667,20 159.396,20.0299997 159.436,20.09 C159.476,20.1500003 159.462667,20.2266662 159.396,20.32 L155.356,26.46 C155.302666,26.5533338 155.276,26.6599994 155.276,26.78 C155.276,26.9000006 155.302666,27.0066662 155.356,27.1 L159.656,33.68 Z M174.016,20 C174.122667,20 174.196,20.0299997 174.236,20.09 C174.276,20.1500003 174.269334,20.2266662 174.216,20.32 L169.716,28.48 C169.662666,28.5733338 169.619333,28.686666 169.586,28.82 C169.552666,28.953334 169.536,29.0733328 169.536,29.18 L169.536,33.62 C169.536,33.7266672 169.502667,33.8166663 169.436,33.89 C169.369333,33.9633337 169.282667,34 169.176,34 L166.396,34 C166.289333,34 166.199334,33.9633337 166.126,33.89 C166.052666,33.8166663 166.016,33.7266672 166.016,33.62 L166.016,29.18 C166.016,29.0733328 165.999333,28.953334 165.966,28.82 C165.932666,28.686666 165.889334,28.5733338 165.836,28.48 L161.356,20.32 C161.302666,20.2266662 161.296,20.1500003 161.336,20.09 C161.376,20.0299997 161.449333,20 161.556,20 L164.556,20 C164.662667,20 164.765999,20.0299997 164.866,20.09 C164.966001,20.1500003 165.042666,20.2266662 165.096,20.32 L167.776,25.58 L170.456,20.32 C170.509334,20.2266662 170.589333,20.1500003 170.696,20.09 C170.802667,20.0299997 170.909333,20 171.016,20 L174.016,20 Z M187.216,22.9 C187.216,23.0066672 187.189334,23.1199994 187.136,23.24 C187.082666,23.3600006 187.022667,23.4599996 186.956,23.54 L180.456,30.86 L186.836,30.86 C186.942667,30.86 187.032666,30.8966663 187.106,30.97 C187.179334,31.0433337 187.216,31.1333328 187.216,31.24 L187.216,33.62 C187.216,33.7266672 187.179334,33.8166663 187.106,33.89 C187.032666,33.9633337 186.942667,34 186.836,34 L176.896,34 C176.642665,34 176.516,33.8733346 176.516,33.62 L176.516,31.12 C176.516,31.0133328 176.539333,30.8966673 176.586,30.77 C176.632667,30.6433327 176.689333,30.5400004 176.756,30.46 L183.396,23.14 L177.016,23.14 C176.909333,23.14 176.819334,23.1033337 176.746,23.03 C176.672666,22.9566663 176.636,22.8666672 176.636,22.76 L176.636,20.38 C176.636,20.2733328 176.672666,20.1833337 176.746,20.11 C176.819334,20.0366663 176.909333,20 177.016,20 L186.836,20 C186.942667,20 187.032666,20.0366663 187.106,20.11 C187.179334,20.1833337 187.216,20.2733328 187.216,20.38 L187.216,22.9 Z" id="Askr.xyz" fill="#FFFFFF"></path>
    </g>
</svg>