<?xml version="1.0" encoding="UTF-8" standalone="no"?>
<svg width="137px" height="38px" viewBox="0 0 137 38" version="1.1" xmlns="http://www.w3.org/2000/svg" xmlns:xlink="http://www.w3.org/1999/xlink">
    <!-- Generator: Sketch 3.6.1 (26313) - http://www.bohemiancoding.com/sketch -->
    <title>Askr.xyz</title>
    <desc>Created with Sketch.</desc>
    <defs></defs>
    <g id="Page-1" stroke="none" stroke-width="1" fill="none" fill-rule="evenodd">
        <path d="M17.944,0.064 L34.984,33.52 L26.968,35.056 L23.8,28.336 L11.752,28.336 L8.584,35.056 L0.52,33.52 L17.944,0.064 Z M17.752,14.464 L14.488,21.616 L21.112,21.616 L17.752,14.464 Z M53.704,12.64 L49.432,16.72 C48.3119944,15.7599952 47.048007,15.28 45.64,15.28 C45.031997,15.28 44.4720026,15.4079987 43.96,15.664 C43.4479974,15.9200013 43.192,16.3039974 43.192,16.816 C43.192,17.7440046 44.1679902,18.4319978 46.12,18.88 C48.9680142,19.5200032 50.791996,20.0799976 51.592,20.56 C53.5760099,21.7760061 54.568,23.8079858 54.568,26.656 C54.568,29.056012 53.6080096,31.0159924 51.688,32.536 C49.7679904,34.0560076 47.4160139,34.816 44.632,34.816 C40.9839818,34.816 37.8320133,33.6320118 35.176,31.264 L38.872,26.416 C39.6400038,27.1200035 40.5519947,27.6879978 41.608,28.12 C42.6640053,28.5520022 43.7199947,28.768 44.776,28.768 C45.576004,28.768 46.2399974,28.5920018 46.768,28.24 C47.2960026,27.8879982 47.56,27.4880022 47.56,27.04 C47.56,26.2079958 46.5840098,25.5200027 44.632,24.976 C41.8479861,24.2079962 40.0080045,23.5520027 39.112,23.008 C37.1279901,21.7919939 36.136,19.984012 36.136,17.584 C36.136,14.8319862 37.0959904,12.7040075 39.016,11.2 C40.7120085,9.88799344 42.8239874,9.232 45.352,9.232 C46.9840082,9.232 48.4719933,9.5119972 49.816,10.072 C51.1600067,10.6320028 52.4559938,11.4879942 53.704,12.64 L53.704,12.64 Z M65.704,0.736 L65.704,19.744 L74.248,8.8 L81.784,11.104 L73.48,21.04 L82.888,32.416 L74.776,34.48 L65.704,22.624 L65.704,33.52 L58.504,34.48 L58.504,1.696 L65.704,0.736 Z M92.008,9.376 L92.008,14.176 C92.5200026,12.6399923 93.2079957,11.472004 94.072,10.672 C95.1280053,9.67999504 96.5199914,9.184 98.248,9.184 C98.6000018,9.184 98.9679981,9.19999984 99.352,9.232 C99.3840002,9.232 99.7519965,9.27999952 100.456,9.376 L98.344,16.72 C98.1199989,16.72 97.8800013,16.7040002 97.624,16.672 C97.3679987,16.6399998 97.1760006,16.624 97.048,16.624 C95.255991,16.624 94.0400032,17.3599926 93.4,18.832 C92.9199976,19.9520056 92.68,21.7279878 92.68,24.16 L92.68,33.52 L85.48,34.48 L85.48,10.336 L92.008,9.376 Z M103.52,30.1 L105.76,32.38 L103.52,34.64 L101.26,32.34 L103.52,30.1 Z M116.7,24.48 L113.62,28.9 L116.7,33.46 L113.62,34.4 L111.8,31.34 L109.76,34.4 L106.9,33.46 L110.06,28.9 L106.9,24.48 L110.06,23.72 L111.82,26.8 L113.62,23.72 L116.7,24.48 Z M127.56,24.12 L121.42,37.46 L118.2,37.2 L120.4,32.74 L116.56,24.12 L119.6,23.72 L122.02,29.5 L124.48,23.72 L127.56,24.12 Z M136.82,31.3 L136.06,34 L127.56,34 L132.04,26.6 L128.4,26.6 L129.02,24 L136.68,24 L132.34,31.3 L136.82,31.3 Z" id="Askr.xyz" fill="#FFFFFF"></path>
    </g>
</svg>